<?xml version="1.0" encoding="UTF-8"?>
<svg width="24" height="24" preserveAspectRatio="xMidYMid" version="1.1" viewBox="0 0 24 24" xmlns="http://www.w3.org/2000/svg">
 <path d="m19.997 4.5763c-1.4914-0.69778-3.086-1.2049-4.7532-1.4937-0.20475 0.37018-0.44395 0.86807-0.60888 1.2641-1.7722-0.26652-3.5282-0.26652-5.2678 0-0.16489-0.39607-0.40953-0.89397-0.61611-1.2641-1.669 0.28876-3.2655 0.79774-4.7568 1.4974-3.0081 4.5457-3.8236 8.9784-3.4159 13.348 1.9951 1.4899 3.9287 2.395 5.8296 2.9873 0.46935-0.64595 0.88794-1.3326 1.2485-2.0563-0.68679-0.26097-1.3446-0.58301-1.9661-0.95688 0.16489-0.12216 0.32618-0.24988 0.48201-0.38129 3.791 1.7731 7.9099 1.7731 11.656 0 0.15766 0.13141 0.31892 0.25913 0.48201 0.38129-0.62337 0.3757-1.283 0.69775-1.9698 0.95874 0.36061 0.72182 0.7774 1.4103 1.2485 2.0563 1.9027-0.59226 3.8381-1.4973 5.8332-2.9891 0.47841-5.0657-0.81726-9.4578-3.4249-13.352zm-11.824 10.665c-1.138 0-2.0713-1.0624-2.0713-2.3561 0-1.2937 0.91333-2.358 2.0713-2.358 1.158 0 2.0912 1.0624 2.0713 2.358 0.0018 1.2937-0.9133 2.3561-2.0713 2.3561zm7.6544 0c-1.138 0-2.0713-1.0624-2.0713-2.3561 0-1.2937 0.9133-2.358 2.0713-2.358 1.1579 0 2.0912 1.0624 2.0713 2.358 0 1.2937-0.91333 2.3561-2.0713 2.3561z"/>
</svg>
