<?xml version="1.0" encoding="UTF-8"?>
<svg width="24" height="24" preserveAspectRatio="xMidYMid" version="1.1" viewBox="0 0 24 24" xml:space="preserve" xmlns="http://www.w3.org/2000/svg"><path id="github-[#142]" d="m12 0c6.6276 0 12 5.508 12 12.304 0 5.4348-3.4344 10.045-8.1996 11.674-0.6084 0.1212-0.8244-0.2628-0.8244-0.5904 0-0.40559 0.0144-1.7304 0.0144-3.3768 0-1.1472-0.384-1.896-0.8148-2.2776 2.6724-0.3048 5.4804-1.3452 5.4804-6.0708 0-1.344-0.4656-2.4408-1.236-3.3024 0.1248-0.3108 0.5364-1.5624-0.1176-3.2568 0 0-1.0056-0.33-3.2964 1.2612-0.9588-0.2724-1.986-0.4092-3.006-0.414-1.02 0-2.046 0.1416-3.0036 0.414-2.2932-1.5912-3.3012-1.2612-3.3012-1.2612-0.6516 1.6944-0.24 2.946-0.1164 3.2568-0.7668 0.8616-1.236 1.9584-1.236 3.3024 0 4.7136 2.802 5.7696 5.4672 6.0804-0.3432 0.30719-0.654 0.84959-0.762 1.6452-0.684 0.3144-2.4216 0.858-3.492-1.0224 0 0-0.6348-1.182-1.8396-1.2684 0 0-1.17-0.0156-0.0816 0.7476 0 0 0.786 0.37799 1.332 1.8 0 0 0.7044 2.196 4.0428 1.452 6e-3 1.0284 0.0168 1.998 0.0168 2.2908 0 0.3252-0.2208 0.7056-0.8196 0.5916-4.7688-1.626-8.2068-6.2388-8.2068-11.675 0-6.7956 5.3736-12.304 12-12.304" fill-rule="evenodd"/></svg>
